<svg width="39" height="80" viewBox="0 0 39 104" fill="none" xmlns="http://www.w3.org/2000/svg">
<path d="M25.9527 5C26.6808 4.99939 27.4017 5.14413 28.0731 5.42575C28.7445 5.70736 29.3529 6.12018 29.8627 6.64C30.9131 7.70638 31.5019 9.14316 31.5019 10.64C31.5019 12.1368 30.9131 13.5736 29.8627 14.64L19.5027 25.13L9.1427 14.64C8.09229 13.5736 7.50349 12.1368 7.50349 10.64C7.50349 9.14316 8.09229 7.70638 9.1427 6.64C9.6528 6.12055 10.2613 5.70795 10.9326 5.42629C11.604 5.14464 12.3247 4.99957 13.0527 4.99957C13.7807 4.99957 14.5015 5.14464 15.1728 5.42629C15.8441 5.70795 16.4526 6.12055 16.9627 6.64L19.5027 9.24L22.0327 6.66C22.5409 6.13399 23.15 5.71586 23.8236 5.43064C24.4971 5.14542 25.2213 4.99895 25.9527 5ZM25.9527 3C24.9583 2.99916 23.9738 3.19686 23.0568 3.5815C22.1398 3.96615 21.3089 4.53 20.6127 5.24L19.5027 6.36L18.3927 5.24C17.6957 4.53129 16.8645 3.96841 15.9477 3.58419C15.0309 3.19997 14.0468 3.0021 13.0527 3.0021C12.0586 3.0021 11.0745 3.19997 10.1577 3.58419C9.24091 3.96841 8.40976 4.53129 7.7127 5.24C6.29458 6.68363 5.5 8.62636 5.5 10.65C5.5 12.6736 6.29458 14.6164 7.7127 16.06L19.5027 28L31.2927 16.06C32.7108 14.6164 33.5054 12.6736 33.5054 10.65C33.5054 8.62636 32.7108 6.68363 31.2927 5.24C30.5958 4.53091 29.7648 3.96765 28.8479 3.58306C27.9311 3.19848 26.9469 3.00028 25.9527 3Z" fill="#0259EB"/>
<path d="M19.5016 45.28C20.4776 45.28 21.3976 45.528 22.2616 46.024C23.1256 46.52 23.8776 47.2 24.5176 48.064C25.1576 48.928 25.6616 49.944 26.0296 51.112C26.4136 52.28 26.6056 53.544 26.6056 54.904C26.6056 56.2 26.4136 57.416 26.0296 58.552C25.6616 59.688 25.1576 60.68 24.5176 61.528C23.8776 62.36 23.1256 63.024 22.2616 63.52C21.3976 64 20.4776 64.24 19.5016 64.24C18.5256 64.24 17.6056 64 16.7416 63.52C15.8776 63.024 15.1256 62.36 14.4856 61.528C13.8456 60.68 13.3336 59.688 12.9496 58.552C12.5816 57.416 12.3976 56.2 12.3976 54.904C12.3976 53.544 12.5816 52.28 12.9496 51.112C13.3336 49.944 13.8456 48.928 14.4856 48.064C15.1256 47.2 15.8776 46.52 16.7416 46.024C17.6056 45.528 18.5256 45.28 19.5016 45.28ZM19.5016 63.088C20.1256 63.088 20.6776 62.96 21.1576 62.704C21.6536 62.448 22.0696 62.008 22.4056 61.384C22.7576 60.76 23.0216 59.928 23.1976 58.888C23.3896 57.848 23.4856 56.544 23.4856 54.976C23.4856 53.344 23.3896 51.984 23.1976 50.896C23.0216 49.808 22.7656 48.936 22.4296 48.28C22.0936 47.608 21.6776 47.136 21.1816 46.864C20.6856 46.576 20.1256 46.432 19.5016 46.432C18.8776 46.432 18.3176 46.576 17.8216 46.864C17.3256 47.136 16.9096 47.608 16.5736 48.28C16.2376 48.936 15.9736 49.808 15.7816 50.896C15.6056 51.984 15.5176 53.344 15.5176 54.976C15.5176 56.544 15.6056 57.848 15.7816 58.888C15.9736 59.928 16.2376 60.76 16.5736 61.384C16.9096 62.008 17.3256 62.448 17.8216 62.704C18.3176 62.96 18.8776 63.088 19.5016 63.088Z" fill="white"/>
<path opacity="0.5" d="M2.23513 93C2.05379 93 1.89913 92.9467 1.77113 92.84C1.65379 92.7227 1.59513 92.5733 1.59513 92.392V82.312C1.59513 82.1093 1.65379 81.9493 1.77113 81.832C1.88846 81.704 2.04846 81.64 2.25113 81.64C2.45379 81.64 2.61379 81.704 2.73113 81.832C2.84846 81.9493 2.90713 82.1093 2.90713 82.312V91.88H8.07513C8.26713 91.88 8.41646 91.928 8.52313 92.024C8.62979 92.12 8.68313 92.2587 8.68313 92.44C8.68313 92.6213 8.62979 92.76 8.52313 92.856C8.41646 92.952 8.26713 93 8.07513 93H2.23513ZM13.2278 85.016C15.1798 85.016 16.1558 86.04 16.1558 88.088V92.44C16.1558 92.632 16.0971 92.7867 15.9798 92.904C15.8731 93.0213 15.7238 93.08 15.5318 93.08C15.3398 93.08 15.1851 93.0213 15.0678 92.904C14.9504 92.7867 14.8918 92.632 14.8918 92.44V91.672C14.6891 92.1307 14.3798 92.488 13.9638 92.744C13.5478 92.9893 13.0678 93.112 12.5238 93.112C12.0224 93.112 11.5584 93.0107 11.1318 92.808C10.7158 92.6053 10.3851 92.3227 10.1398 91.96C9.89442 91.5973 9.77175 91.1973 9.77175 90.76C9.77175 90.1733 9.92108 89.72 10.2198 89.4C10.5184 89.0693 11.0091 88.8347 11.6918 88.696C12.3744 88.5467 13.3238 88.472 14.5398 88.472H14.8918V87.944C14.8918 87.304 14.7584 86.8347 14.4918 86.536C14.2358 86.2373 13.8144 86.088 13.2278 86.088C12.5024 86.088 11.7664 86.2853 11.0198 86.68C10.7318 86.8613 10.5291 86.952 10.4118 86.952C10.2838 86.952 10.1771 86.904 10.0918 86.808C10.0064 86.712 9.96375 86.5893 9.96375 86.44C9.96375 86.2907 10.0064 86.1627 10.0918 86.056C10.1878 85.9387 10.3371 85.8213 10.5398 85.704C10.9131 85.4907 11.3344 85.3253 11.8038 85.208C12.2838 85.08 12.7584 85.016 13.2278 85.016ZM12.6998 92.088C13.3398 92.088 13.8624 91.8747 14.2678 91.448C14.6838 91.0107 14.8918 90.4507 14.8918 89.768V89.304H14.6038C13.6651 89.304 12.9504 89.3467 12.4598 89.432C11.9691 89.5067 11.6171 89.64 11.4038 89.832C11.2011 90.0133 11.0998 90.2853 11.0998 90.648C11.0998 91.064 11.2491 91.4107 11.5478 91.688C11.8571 91.9547 12.2411 92.088 12.6998 92.088ZM22.4481 85.016C23.1308 85.016 23.7335 85.1813 24.2561 85.512C24.7788 85.8427 25.1841 86.312 25.4721 86.92C25.7601 87.528 25.9041 88.232 25.9041 89.032C25.9041 89.8427 25.7601 90.5573 25.4721 91.176C25.1841 91.784 24.7788 92.2587 24.2561 92.6C23.7335 92.9413 23.1308 93.112 22.4481 93.112C21.8401 93.112 21.3068 92.9787 20.8481 92.712C20.4001 92.4453 20.0588 92.0667 19.8241 91.576V92.44C19.8241 92.632 19.7655 92.7867 19.6481 92.904C19.5415 93.0213 19.3868 93.08 19.1841 93.08C18.9815 93.08 18.8215 93.0213 18.7041 92.904C18.5868 92.7867 18.5281 92.632 18.5281 92.44V82.264C18.5281 82.0827 18.5868 81.9333 18.7041 81.816C18.8215 81.6987 18.9815 81.64 19.1841 81.64C19.3868 81.64 19.5415 81.6987 19.6481 81.816C19.7655 81.9227 19.8241 82.072 19.8241 82.264V86.552C20.0588 86.0613 20.4001 85.6827 20.8481 85.416C21.3068 85.1493 21.8401 85.016 22.4481 85.016ZM22.1921 92.04C22.9495 92.04 23.5361 91.7787 23.9521 91.256C24.3681 90.7227 24.5761 89.9813 24.5761 89.032C24.5761 88.104 24.3681 87.384 23.9521 86.872C23.5361 86.36 22.9495 86.104 22.1921 86.104C21.4348 86.104 20.8481 86.36 20.4321 86.872C20.0268 87.384 19.8241 88.1147 19.8241 89.064C19.8241 90.0133 20.0268 90.7493 20.4321 91.272C20.8481 91.784 21.4348 92.04 22.1921 92.04ZM33.8726 91.192C33.99 91.192 34.0913 91.24 34.1766 91.336C34.262 91.432 34.3046 91.5547 34.3046 91.704C34.3046 91.9707 34.118 92.216 33.7446 92.44C33.3606 92.664 32.9553 92.8347 32.5286 92.952C32.102 93.0587 31.686 93.112 31.2806 93.112C30.0753 93.112 29.1206 92.7547 28.4166 92.04C27.7233 91.3253 27.3766 90.3387 27.3766 89.08C27.3766 88.28 27.5313 87.576 27.8406 86.968C28.15 86.3493 28.582 85.8693 29.1366 85.528C29.702 85.1867 30.342 85.016 31.0566 85.016C32.07 85.016 32.8753 85.3467 33.4726 86.008C34.07 86.6693 34.3686 87.5653 34.3686 88.696C34.3686 88.9093 34.326 89.064 34.2406 89.16C34.1553 89.256 34.0166 89.304 33.8246 89.304H28.6726C28.7686 91.1387 29.638 92.056 31.2806 92.056C31.6966 92.056 32.054 92.0027 32.3526 91.896C32.6513 91.7787 32.9713 91.624 33.3126 91.432C33.59 91.272 33.7766 91.192 33.8726 91.192ZM31.0726 86.024C30.39 86.024 29.8406 86.2373 29.4246 86.664C29.0193 87.0907 28.7793 87.6933 28.7046 88.472H33.2326C33.2113 87.6827 33.014 87.08 32.6406 86.664C32.2673 86.2373 31.7446 86.024 31.0726 86.024ZM36.9341 93.08C36.7421 93.08 36.5821 93.0267 36.4541 92.92C36.3368 92.8027 36.2781 92.6427 36.2781 92.44V82.28C36.2781 82.0773 36.3368 81.9227 36.4541 81.816C36.5821 81.6987 36.7421 81.64 36.9341 81.64C37.1155 81.64 37.2648 81.6987 37.3821 81.816C37.5101 81.9227 37.5741 82.0773 37.5741 82.28V92.44C37.5741 92.6427 37.5101 92.8027 37.3821 92.92C37.2648 93.0267 37.1155 93.08 36.9341 93.08Z" fill="white"/>
</svg>
